<?xml version="1.0" standalone="no"?>
<!DOCTYPE svg PUBLIC "-//W3C//DTD SVG 20010904//EN"
 "http://www.w3.org/TR/2001/REC-SVG-20010904/DTD/svg10.dtd">
<svg version="1.0" xmlns="http://www.w3.org/2000/svg"
 width="567.000000pt" height="567.000000pt" viewBox="0 0 567.000000 567.000000"
 preserveAspectRatio="xMidYMid meet">
<metadata>
Created by potrace 1.14, written by Peter Selinger 2001-2017
</metadata>
<g transform="translate(0.000000,567.000000) scale(0.100000,-0.100000)"
fill="#000000" stroke="none">
<path d="M3626 4033 c-8 -8 -32 -14 -63 -16 -12 0 -19 -5 -17 -9 3 -5 10 -5
16 -2 6 4 8 2 4 -4 -3 -6 -18 -9 -32 -6 -14 3 -23 1 -20 -4 2 -4 -4 -9 -15 -9
-12 -1 -17 3 -13 9 4 7 2 8 -5 4 -6 -4 -9 -12 -5 -17 3 -6 -3 -13 -15 -16 -12
-3 -21 -10 -21 -17 0 -6 -4 -6 -9 3 -6 9 -11 10 -15 2 -4 -6 -4 -11 0 -11 4 0
-5 -9 -20 -21 -14 -11 -30 -18 -35 -15 -5 3 -7 -3 -4 -14 4 -14 0 -20 -11 -20
-9 0 -16 -5 -16 -11 0 -5 -4 -8 -9 -4 -6 3 -8 -4 -6 -15 2 -11 0 -18 -6 -15
-5 4 -13 -5 -18 -18 -6 -14 -14 -28 -20 -31 -6 -4 -7 -14 -4 -23 5 -13 2 -15
-11 -10 -11 4 -16 2 -14 -6 1 -6 -6 -25 -17 -40 -15 -24 -17 -32 -6 -49 7 -11
8 -17 2 -13 -6 3 -11 -1 -11 -10 0 -9 -5 -13 -10 -10 -7 4 -9 -5 -5 -25 3 -17
2 -29 -3 -26 -5 3 -9 -1 -9 -9 0 -8 5 -15 10 -15 5 0 -1 -9 -14 -21 -13 -11
-18 -18 -11 -14 6 3 12 1 12 -5 0 -6 4 -9 9 -5 6 3 6 -7 0 -27 -11 -40 -11
-40 -1 -35 4 3 7 -19 7 -49 0 -40 -3 -53 -13 -49 -7 3 -11 1 -8 -4 3 -5 -1
-14 -9 -21 -12 -10 -18 -10 -29 -1 -10 8 -16 9 -21 1 -4 -6 -1 -9 6 -8 6 2 14
-3 17 -11 3 -9 0 -11 -8 -6 -8 5 -11 4 -7 -2 4 -6 1 -16 -7 -22 -11 -9 -15 -9
-19 1 -4 11 -6 10 -6 0 -1 -8 -6 -10 -13 -6 -7 4 -10 4 -6 -1 4 -4 2 -15 -4
-24 -10 -12 -8 -12 8 1 16 14 23 15 34 5 10 -10 11 -9 5 2 -6 11 -4 13 9 8 10
-4 15 -3 11 3 -3 6 -3 15 1 22 5 8 10 6 16 -8 7 -17 8 -16 4 3 -2 13 0 26 5
29 5 3 9 -5 10 -18 l0 -23 9 23 c10 22 30 31 30 11 0 -5 -5 -7 -12 -3 -7 4 -8
3 -4 -4 4 -6 13 -9 20 -6 8 3 17 0 22 -7 4 -7 3 -10 -4 -5 -6 3 -14 1 -18 -5
-4 -7 -3 -9 3 -6 6 4 19 -1 29 -9 10 -9 14 -13 7 -10 -6 4 -14 2 -17 -3 -4 -5
5 -8 18 -7 18 2 22 -1 19 -14 -3 -10 1 -21 8 -25 8 -5 10 -4 5 3 -4 8 -2 10 8
6 9 -3 12 -12 8 -22 -5 -14 -3 -15 10 -4 13 10 18 9 29 -5 9 -11 10 -14 2 -9
-8 4 -13 1 -13 -8 0 -9 -5 -16 -12 -16 -6 0 -8 -3 -5 -6 4 -4 13 -1 22 6 20
16 19 6 -1 -25 -9 -14 -20 -22 -25 -19 -5 3 -6 -3 -2 -12 5 -14 3 -16 -12 -11
-15 6 -16 5 -5 -8 11 -13 10 -14 -3 -9 -12 4 -15 0 -13 -20 3 -21 1 -24 -10
-15 -10 8 -12 6 -9 -11 3 -16 0 -20 -11 -16 -11 4 -12 2 -5 -12 6 -12 3 -26
-14 -49 -12 -18 -25 -30 -28 -26 -4 3 -5 -8 -3 -25 2 -17 -1 -29 -5 -26 -5 3
-8 -10 -7 -28 2 -20 -2 -33 -9 -34 -26 -3 -28 -5 -13 -14 10 -6 11 -10 3 -10
-7 0 -13 -5 -13 -11 0 -5 6 -7 13 -3 9 6 9 4 1 -7 -16 -21 -24 -58 -13 -65 5
-3 5 -12 0 -22 -5 -9 -7 -34 -6 -54 2 -22 -2 -38 -8 -38 -6 0 -3 -6 8 -13 14
-11 15 -16 5 -22 -9 -5 -11 -4 -6 3 4 7 3 12 -3 12 -5 0 -9 -9 -8 -19 0 -11 4
-18 8 -15 4 2 9 -3 13 -11 3 -8 1 -17 -5 -21 -6 -4 -4 -13 7 -26 16 -16 16
-21 4 -28 -12 -8 -12 -10 -1 -10 7 0 11 -6 8 -14 -7 -17 16 -39 28 -28 5 4 5
1 1 -6 -5 -7 -15 -11 -25 -8 -9 4 -5 -3 9 -15 14 -11 18 -17 10 -13 -10 5 -8
0 4 -15 20 -22 20 -22 0 -15 -14 4 -15 3 -6 -4 8 -5 13 -13 12 -18 -1 -5 4
-10 12 -12 9 -2 8 0 -2 7 -9 7 -10 11 -3 11 19 0 27 -21 12 -31 -11 -7 -11 -9
2 -9 11 0 15 -8 14 -25 -2 -14 1 -23 6 -19 5 3 6 11 2 17 -3 7 3 4 15 -7 12
-10 19 -23 16 -27 -7 -12 21 -40 32 -31 5 4 3 -1 -4 -10 -12 -14 -10 -16 10
-11 16 3 19 2 10 -5 -11 -7 -11 -10 3 -16 9 -3 13 -11 9 -17 -4 -8 -3 -9 5 -5
6 4 9 12 6 17 -3 5 1 6 10 3 9 -4 14 -12 11 -19 -3 -8 2 -11 15 -8 14 4 19 0
19 -13 0 -11 3 -15 8 -9 4 6 19 11 34 10 22 0 24 -3 15 -14 -10 -12 -9 -13 6
-8 10 4 23 7 28 7 6 0 7 5 3 12 -4 7 -3 8 5 4 6 -4 9 -11 7 -15 -3 -4 1 -8 9
-8 8 0 11 5 8 10 -3 5 11 8 35 5 22 -2 38 0 36 3 -5 8 27 22 34 14 3 -3 -1 -5
-8 -5 -7 0 -11 -3 -8 -6 9 -8 59 26 53 36 -3 5 3 7 12 6 10 -2 21 2 25 8 5 7
8 6 8 -3 0 -11 4 -9 15 5 14 18 15 18 8 0 -6 -18 -5 -18 15 0 23 19 29 30 12
19 -5 -3 -10 -4 -10 -1 0 3 10 10 21 17 17 9 20 8 14 -3 -4 -7 3 -2 15 12 12
14 19 20 16 13 -4 -6 -1 -15 6 -19 7 -4 10 -4 6 1 -4 4 0 14 10 22 9 8 11 12
5 8 -7 -3 -13 -4 -13 -1 0 3 20 15 45 26 25 11 45 23 45 26 0 3 -5 2 -12 -2
-7 -5 -8 -3 -4 5 5 7 14 10 22 7 8 -3 14 -1 14 5 0 6 4 7 10 4 5 -3 7 0 4 9
-3 9 2 17 15 21 13 4 18 11 14 18 -4 7 2 5 12 -3 10 -8 16 -10 12 -4 -3 6 1
20 9 30 9 10 13 14 10 9 -2 -6 4 -11 14 -11 14 0 16 3 8 13 -8 10 -6 13 8 13
16 0 17 2 4 11 -12 9 -11 10 8 6 17 -4 23 0 28 18 4 15 11 22 20 18 8 -3 14 0
14 7 0 14 38 50 52 50 4 0 8 7 8 16 0 10 6 14 15 11 8 -4 17 -1 21 5 5 7 2 8
-6 3 -9 -6 -11 -4 -6 4 5 7 15 10 23 6 14 -5 14 -3 2 12 -12 15 -12 16 5 10
17 -7 17 -6 5 10 -9 11 -10 14 -1 9 7 -4 12 -2 12 4 0 7 7 10 14 7 11 -4 13
-1 9 11 -6 14 -4 15 8 5 12 -10 15 -8 16 9 2 24 32 60 44 52 5 -3 9 1 9 8 1 8
6 6 15 -6 17 -22 20 -14 5 14 -7 14 -6 17 8 16 10 0 17 6 16 16 -1 12 5 15 25
13 14 -2 20 -2 14 1 -18 8 -16 24 2 24 9 0 12 6 8 18 -6 15 -3 14 18 -3 18
-15 20 -16 10 -2 -10 12 -10 17 -2 17 7 0 9 5 5 11 -4 7 2 6 17 -2 22 -11 23
-11 10 4 -12 15 -11 17 4 17 12 0 15 5 11 16 -6 15 -4 15 11 3 11 -9 14 -10 9
-1 -5 8 -1 12 11 12 15 0 16 2 3 10 -13 9 -13 10 0 11 8 1 18 1 23 0 4 0 7 5
7 13 0 8 5 18 12 22 7 4 8 3 4 -4 -10 -17 1 -15 23 5 11 9 18 20 15 24 -2 4 4
6 15 4 11 -2 26 4 33 13 9 11 9 14 1 8 -9 -5 -11 -2 -7 8 3 9 10 14 14 11 5
-3 11 -1 15 5 4 6 11 8 16 5 5 -4 13 4 18 17 6 13 10 17 10 11 1 -7 6 -13 12
-13 5 0 7 5 4 10 -3 6 1 10 10 10 10 0 13 -5 9 -12 -4 -7 -3 -8 5 -4 6 4 8 12
5 18 -5 7 -1 9 9 5 11 -4 14 -2 11 7 -7 18 12 30 22 15 5 -8 3 -9 -6 -4 -9 5
-11 4 -6 -4 4 -6 12 -9 17 -5 5 3 6 10 3 16 -5 7 0 9 15 5 18 -4 20 -3 10 9
-10 12 -9 13 6 8 13 -5 16 -4 11 4 -10 16 6 15 23 0 9 -8 11 -8 8 -2 -4 7 0
15 9 18 10 4 13 2 8 -7 -6 -9 -4 -9 7 -1 24 18 51 25 44 11 -4 -6 2 -2 12 9
18 20 20 20 30 5 10 -14 11 -14 10 3 -2 13 5 19 20 21 13 1 20 -3 16 -9 -4 -6
3 -3 14 7 16 14 23 15 29 6 4 -8 3 -10 -4 -5 -7 4 -12 2 -12 -3 0 -17 18 -13
29 7 6 9 11 11 11 5 0 -7 5 -13 11 -13 5 0 8 4 5 9 -8 13 68 1 76 -13 5 -7 8
-4 8 8 0 15 3 16 15 6 12 -10 15 -10 15 0 0 9 7 8 24 -4 18 -11 27 -13 32 -4
4 7 3 8 -4 4 -7 -4 -12 -1 -12 9 0 9 4 14 9 10 6 -3 15 3 21 12 9 15 10 14 6
-7 -4 -19 -2 -16 9 8 17 36 13 52 -12 52 -10 0 -13 6 -9 16 3 8 2 12 -3 9 -5
-3 -12 -1 -16 5 -4 6 -12 7 -18 3 -17 -10 -47 -11 -41 -1 3 4 -1 8 -10 8 -8 0
-17 6 -19 13 -4 7 -6 6 -6 -5 -1 -9 5 -18 12 -21 6 -3 -2 -4 -18 -3 -17 1 -35
5 -41 8 -12 8 -34 6 -51 -5 -7 -5 -19 -5 -25 -1 -10 6 -10 5 -1 -7 10 -13 10
-16 -2 -16 -8 0 -15 5 -15 11 0 6 -4 5 -9 -3 -5 -8 -16 -11 -26 -7 -12 4 -16
2 -12 -7 3 -8 -1 -14 -9 -14 -7 0 -11 3 -9 7 2 4 -2 7 -9 7 -8 0 -12 -7 -8
-15 3 -10 0 -13 -9 -10 -8 3 -20 -1 -27 -9 -19 -18 -32 -16 -25 5 5 14 3 13
-10 -3 -8 -11 -13 -23 -11 -27 2 -4 -1 -10 -7 -14 -8 -4 -9 -3 -5 4 11 18 -5
14 -27 -5 -11 -10 -17 -12 -13 -6 5 9 2 11 -9 7 -9 -4 -14 -13 -11 -20 6 -15
-7 -27 -18 -17 -10 11 -37 12 -30 2 3 -5 11 -6 17 -3 7 4 8 3 4 -1 -7 -8 -27
-15 -54 -17 -6 -1 -9 -7 -6 -15 3 -9 -3 -13 -22 -13 -15 0 -24 -4 -20 -10 3
-5 -4 -10 -15 -10 -16 0 -20 -4 -16 -16 5 -13 2 -15 -14 -11 -15 4 -24 -1 -32
-18 -7 -15 -16 -21 -26 -18 -11 5 -13 3 -7 -8 7 -11 5 -11 -10 1 -15 12 -17
12 -10 1 6 -11 4 -13 -8 -8 -13 5 -15 2 -7 -17 7 -20 6 -22 -14 -19 -12 3 -31
-3 -42 -14 -11 -10 -15 -14 -8 -10 7 5 15 3 20 -4 4 -7 3 -9 -3 -6 -6 4 -16 0
-23 -8 -15 -18 -34 -20 -24 -3 5 7 3 8 -5 4 -7 -5 -10 -10 -7 -13 8 -8 -18
-31 -28 -25 -5 3 -6 -3 -2 -13 6 -16 4 -16 -11 -4 -15 12 -16 12 -10 -5 6 -14
4 -17 -9 -12 -14 5 -15 4 -5 -8 10 -12 9 -13 -8 -9 -13 3 -21 1 -21 -6 0 -7 5
-9 13 -5 8 5 8 2 -2 -9 -15 -18 -26 -23 -16 -7 3 6 -1 10 -10 10 -9 0 -14 -4
-11 -9 3 -5 -1 -12 -10 -15 -9 -3 -14 -13 -10 -21 6 -17 -10 -30 -19 -15 -10
16 -37 -10 -30 -28 5 -13 3 -13 -12 -1 -15 12 -16 12 -10 -4 4 -11 3 -16 -3
-12 -6 3 -10 1 -10 -5 0 -6 -5 -8 -12 -4 -8 5 -9 2 -5 -10 6 -14 4 -15 -16 -5
-18 9 -20 9 -9 -2 14 -16 16 -33 2 -24 -5 3 -10 1 -10 -5 0 -6 -4 -9 -9 -6 -5
3 -11 -1 -15 -9 -3 -8 -12 -15 -19 -15 -8 0 -19 -12 -26 -26 -7 -16 -17 -24
-26 -20 -8 3 -17 0 -21 -6 -4 -7 -3 -8 4 -4 7 4 12 2 12 -5 0 -6 -8 -9 -19 -6
-13 3 -18 0 -15 -8 5 -11 -29 -29 -49 -26 -5 1 -6 -3 -2 -9 5 -8 12 -7 23 2
12 9 11 6 -2 -10 -19 -22 -32 -30 -21 -13 3 6 -3 9 -13 8 -11 0 -19 -8 -18
-17 1 -8 -5 -14 -13 -12 -9 2 -11 -3 -7 -13 3 -9 2 -14 -3 -11 -5 3 -14 -1
-21 -9 -9 -11 -16 -12 -26 -4 -10 8 -12 6 -9 -11 4 -19 2 -20 -12 -8 -14 10
-15 10 -9 0 6 -9 3 -12 -10 -10 -13 2 -19 -3 -18 -15 2 -15 -1 -16 -14 -5 -9
7 -13 8 -10 3 4 -6 -2 -17 -14 -24 -16 -10 -19 -10 -13 1 3 7 0 5 -8 -5 -10
-12 -17 -14 -22 -8 -3 6 -12 11 -18 11 -8 0 -8 -3 -2 -8 20 -14 10 -35 -18
-38 -18 -2 -25 1 -21 9 3 7 -1 5 -8 -5 -10 -11 -19 -13 -31 -7 -12 7 -15 6
-12 -3 3 -7 -6 -18 -20 -25 -14 -6 -25 -7 -25 -2 0 5 -8 9 -17 9 -16 0 -16 -2
-3 -11 11 -7 6 -9 -20 -5 -21 3 -37 0 -42 -7 -6 -9 -8 -9 -8 1 0 7 -4 10 -10
7 -14 -9 -12 8 3 24 6 8 0 6 -15 -4 -25 -16 -33 -14 -29 8 1 7 -18 11 -46 10
-7 -1 -11 3 -8 7 7 11 -31 51 -40 42 -4 -4 -5 3 -2 16 3 12 1 22 -5 22 -6 0
-7 7 -4 16 3 8 2 12 -4 9 -5 -3 -14 4 -20 15 -6 11 -8 20 -5 20 4 0 -1 7 -9
16 -9 8 -16 20 -16 27 0 6 7 2 16 -9 15 -18 15 -18 5 2 -6 12 -7 25 -3 29 4 5
2 5 -5 1 -6 -3 -14 -2 -18 4 -3 5 0 10 7 10 9 0 9 3 -2 10 -9 6 -11 13 -5 18
15 11 18 35 4 26 -9 -5 -10 -2 -6 10 4 10 3 15 -4 11 -5 -4 -7 -14 -5 -23 3
-10 1 -24 -4 -32 -6 -9 -8 -1 -5 25 1 22 -1 48 -6 57 -7 14 -6 16 6 12 8 -4
15 -1 15 5 0 6 -5 11 -11 11 -6 0 -8 7 -5 16 3 9 3 21 -1 27 -11 18 -11 47 0
54 6 3 7 1 3 -5 -3 -6 -1 -14 5 -18 7 -4 9 -3 5 4 -3 5 0 13 6 15 10 4 10 6 1
6 -7 1 -13 8 -13 17 0 9 5 13 13 9 6 -4 5 -1 -4 7 -14 12 -14 15 1 30 9 10 16
32 15 50 0 18 3 38 7 45 5 6 5 14 0 17 -6 4 -6 21 0 46 10 37 18 45 41 41 5
-1 6 3 2 9 -3 6 -10 8 -15 5 -11 -7 -7 22 5 32 4 4 5 2 0 -6 -6 -10 -4 -12 4
-7 9 6 9 11 0 22 -7 9 -8 14 -3 13 23 -4 26 2 8 16 -18 14 -18 14 4 10 12 -2
20 0 17 5 -3 5 0 10 7 13 7 2 5 3 -4 2 -10 -2 -21 2 -25 7 -3 6 -1 8 4 5 6 -4
17 1 24 10 12 14 12 16 0 8 -10 -5 -12 -4 -7 3 4 7 15 12 24 12 13 0 13 2 -4
16 -10 8 -14 13 -7 10 18 -9 22 18 4 32 -13 11 -13 12 -1 7 8 -4 6 0 -4 9 -10
8 -23 13 -27 10 -5 -3 -9 6 -9 20 0 23 -9 31 -33 27 -5 -1 -6 3 -2 8 3 6 12 8
20 4 8 -3 15 0 15 6 0 6 -6 10 -12 9 -7 -2 -12 3 -10 11 3 12 0 12 -12 2 -13
-11 -15 -10 -11 8 2 12 6 25 10 30 3 5 0 13 -5 16 -7 5 -5 12 7 22 10 8 13 12
7 9 -6 -3 -11 1 -11 8 0 8 6 12 12 9 7 -2 15 3 19 12 3 10 13 15 21 12 9 -4
12 -1 8 9 -4 10 0 12 13 7 12 -4 15 -3 10 6 -5 8 4 25 24 46 32 33 27 48 -16
40 -11 -2 -22 -4 -26 -4 -5 -1 -8 -10 -8 -21 0 -14 -5 -18 -17 -13 -10 3 -15
3 -11 -2 4 -4 0 -14 -10 -21 -15 -12 -14 -12 8 -7 14 3 23 3 20 0 -3 -3 -18
-8 -33 -11 -25 -4 -27 -2 -21 17 6 22 6 22 -10 2 -8 -11 -16 -15 -16 -8 0 6 7
19 16 27 8 9 11 16 5 16 -6 0 -11 5 -11 11 0 5 6 7 13 3 9 -5 9 -4 0 6 -11 12
-7 44 6 36 3 -2 5 18 4 46 -1 42 2 51 18 55 15 4 16 9 8 24 -8 16 -6 19 13 20
22 0 22 1 3 9 -14 6 -16 9 -5 10 8 2 19 2 24 1 5 -1 3 6 -5 15 -12 16 -12 17
4 11 19 -7 24 9 5 16 -8 4 -7 6 3 6 18 1 35 31 18 31 -6 0 -7 5 -4 10 4 6 11
8 16 5 8 -6 13 9 10 28 -1 5 3 5 9 2 6 -4 9 -14 6 -22 -3 -8 -1 -11 5 -8 5 4
7 16 3 28 -3 12 -3 19 1 15 5 -4 14 0 22 10 8 9 11 11 7 3 -5 -10 -3 -12 5 -7
7 5 10 14 7 21 -5 14 11 15 31 2 7 -5 10 0 6 15 -4 19 -3 20 6 8 9 -13 11 -12
11 3 0 10 5 15 10 12 6 -3 10 -1 10 5 0 6 10 10 23 8 12 -2 28 4 35 12 8 8 11
9 7 2 -3 -6 0 -15 9 -18 8 -3 12 -12 10 -19 -3 -7 -1 -16 5 -19 6 -4 8 -13 5
-21 -4 -8 -10 -12 -15 -9 -5 3 -6 -3 -2 -12 4 -11 3 -15 -5 -10 -6 3 -14 1
-18 -5 -4 -8 -3 -9 4 -5 7 4 12 2 12 -3 0 -6 -6 -11 -14 -11 -8 0 -17 -7 -20
-16 -6 -15 -4 -15 11 -3 17 13 17 13 1 -7 -14 -16 -15 -23 -5 -34 8 -8 8 -11
0 -6 -6 3 -13 3 -16 -1 -2 -5 -2 -3 -1 4 2 7 -2 15 -9 19 -7 4 -9 3 -4 -1 4
-5 -1 -17 -10 -28 -10 -11 -12 -17 -5 -13 6 4 12 2 12 -3 0 -6 -4 -11 -9 -11
-5 0 -11 -9 -14 -21 -3 -12 -10 -18 -16 -14 -7 4 -11 -3 -11 -16 0 -12 -3 -20
-6 -16 -7 7 -74 -52 -74 -65 0 -5 10 1 23 14 12 13 16 16 9 7 -8 -10 -11 -22
-8 -27 3 -5 -2 -9 -12 -9 -42 0 -48 -3 -32 -13 13 -8 12 -10 -2 -10 -10 0 -18
-5 -18 -11 0 -5 5 -7 10 -4 6 4 22 -1 37 -10 14 -10 22 -12 18 -4 -6 9 -2 11
16 6 21 -5 22 -4 7 7 -16 12 -16 13 2 26 10 8 16 18 13 24 -4 6 1 5 10 -2 14
-12 16 -11 12 7 -2 13 1 21 8 19 7 -2 23 8 36 21 22 22 22 23 2 16 -32 -10
-25 3 12 20 17 8 23 13 13 10 -16 -5 -17 -3 -6 10 7 8 17 12 22 9 6 -4 5 3 -1
15 -10 17 -9 20 4 15 8 -4 15 -11 15 -17 0 -6 3 -8 6 -5 3 4 0 16 -6 28 -8 15
-8 20 -1 16 6 -4 11 -3 11 2 0 5 10 14 23 21 12 6 14 9 5 7 -13 -4 -17 0 -15
14 2 11 10 26 17 33 12 10 12 9 2 -5 -10 -12 -10 -18 -1 -24 7 -4 9 -3 5 4 -3
6 -2 13 4 17 5 3 10 16 10 29 0 12 6 28 13 35 10 11 7 12 -13 7 -14 -3 -19 -3
-12 0 6 3 10 10 7 14 -3 5 4 7 15 5 11 -2 18 0 15 6 -4 5 -13 9 -20 9 -9 0
-12 6 -8 17 5 12 3 14 -7 8 -9 -5 -11 -4 -6 4 4 6 11 9 16 6 5 -3 12 -1 15 5
4 6 3 10 -2 9 -19 -3 -33 2 -33 12 0 5 5 7 12 3 7 -4 8 -3 4 4 -4 6 -14 8 -23
5 -9 -4 -14 -2 -11 3 4 5 -13 9 -38 8 -23 0 -41 3 -38 8 3 5 9 6 14 3 4 -3 13
2 20 10 12 15 10 21 -4 8z m-389 -352 c0 -11 -5 -18 -9 -15 -4 3 -5 11 -1 19
7 21 12 19 10 -4z m-27 -365 c0 -2 -9 -6 -20 -9 -11 -3 -18 -1 -14 4 5 9 34
13 34 5z m1955 -115 c-9 -8 -36 -10 -30 -2 2 4 11 8 20 8 8 0 13 -3 10 -6z
m-490 -291 c3 -6 -1 -7 -9 -4 -18 7 -21 14 -7 14 6 0 13 -4 16 -10z m-1359
-105 c-1 -14 -7 -30 -15 -37 -10 -11 -10 -8 -2 15 6 15 8 27 5 27 -3 0 -2 5 1
10 10 16 12 12 11 -15z"/>
<path d="M3373 3925 c0 -8 4 -12 9 -9 5 3 6 10 3 15 -9 13 -12 11 -12 -6z"/>
<path d="M3586 3913 c-6 -14 -5 -15 5 -6 7 7 10 15 7 18 -3 3 -9 -2 -12 -12z"/>
<path d="M3343 3633 c0 -9 4 -10 14 -2 7 6 13 12 13 14 0 1 -6 2 -13 2 -8 0
-14 -6 -14 -14z"/>
<path d="M3439 3473 c-13 -17 -13 -17 6 -3 11 8 22 16 24 17 2 2 0 3 -6 3 -6
0 -17 -8 -24 -17z"/>
<path d="M2732 3428 c6 -16 -14 -37 -28 -31 -7 2 -15 -1 -20 -8 -4 -7 -3 -10
3 -6 6 4 13 0 16 -8 4 -8 1 -12 -6 -9 -8 3 -13 -4 -13 -16 0 -11 3 -20 6 -21
3 0 15 -2 28 -5 13 -2 21 0 18 4 -2 4 5 8 17 9 12 0 16 -1 10 -4 -7 -3 -13
-11 -13 -19 0 -9 4 -13 9 -10 11 7 9 -13 -3 -33 -6 -10 -5 -12 2 -7 18 11 14
-5 -5 -28 -14 -15 -14 -18 -2 -8 14 10 16 7 17 -24 1 -19 -2 -33 -7 -30 -4 3
-8 -1 -8 -9 0 -8 5 -11 10 -8 5 3 7 0 5 -8 -3 -8 -1 -26 3 -41 4 -15 4 -26 1
-25 -6 2 -13 -8 -11 -15 6 -20 6 -37 -1 -33 -9 5 -24 -22 -23 -42 1 -28 3 -34
12 -28 5 3 12 1 15 -4 4 -5 1 -13 -5 -17 -8 -5 -9 -3 -4 6 5 9 4 11 -4 6 -9
-6 -9 -11 1 -23 11 -14 10 -15 -12 -10 -14 4 -19 4 -12 1 6 -3 9 -11 5 -17 -4
-7 0 -8 13 -4 18 7 18 6 1 -7 -16 -13 -16 -14 -1 -20 15 -6 15 -8 -2 -27 -19
-21 -26 -57 -12 -65 4 -3 8 -10 8 -15 0 -6 -5 -7 -12 -3 -7 5 -8 3 -3 -7 11
-17 14 -49 4 -49 -4 0 -10 -7 -13 -16 -6 -15 -4 -15 11 -3 9 8 14 9 10 2 -12
-20 -15 -73 -4 -73 6 0 3 -6 -8 -13 -12 -10 -14 -16 -7 -21 7 -4 12 -12 12
-17 0 -6 -4 -8 -8 -5 -10 6 -9 -55 1 -71 5 -8 3 -13 -3 -13 -8 0 -8 -6 0 -20
9 -17 8 -19 -7 -13 -15 5 -15 3 2 -10 16 -14 17 -18 6 -26 -11 -7 -11 -9 0
-14 12 -4 11 -7 -1 -16 -8 -6 -10 -11 -4 -11 7 0 15 -7 18 -16 5 -12 2 -15
-11 -10 -15 5 -15 4 1 -9 11 -8 15 -15 9 -15 -13 0 -11 -25 2 -37 4 -4 5 -2 0
6 -6 10 -4 12 4 7 9 -6 9 -11 1 -21 -8 -10 -7 -15 2 -19 7 -3 3 -4 -10 -2 -12
2 -20 0 -16 -5 3 -5 12 -9 21 -9 9 0 13 -6 10 -14 -3 -7 0 -19 6 -25 6 -6 7
-11 1 -11 -5 0 -2 -5 6 -11 13 -9 13 -10 0 -6 -8 2 -14 10 -12 16 1 7 -2 10
-8 6 -5 -3 -10 -1 -10 6 0 7 -3 9 -7 6 -3 -4 7 -21 23 -38 24 -25 26 -31 14
-39 -8 -5 -10 -10 -5 -10 6 0 16 -9 23 -21 8 -12 9 -18 3 -15 -6 4 -9 -5 -8
-23 2 -22 5 -27 15 -19 9 8 11 7 6 -6 -5 -12 -2 -15 12 -10 11 3 15 2 9 -3
-17 -14 -14 -43 4 -43 12 0 13 -2 3 -9 -10 -6 -9 -10 7 -14 12 -3 21 -9 20
-14 -3 -19 14 -52 24 -46 6 3 7 1 3 -5 -4 -7 -2 -12 3 -12 6 0 11 -10 11 -22
0 -19 2 -20 10 -8 8 12 10 11 10 -8 0 -16 5 -22 16 -20 10 2 23 -10 34 -29 13
-25 20 -30 30 -20 10 9 11 9 6 0 -4 -8 -2 -13 5 -13 7 0 10 -3 6 -6 -3 -4 0
-13 8 -20 15 -16 29 -19 21 -5 -4 5 0 8 8 7 18 -3 48 -27 41 -34 -3 -3 -12 3
-21 14 -9 11 -14 13 -12 5 2 -8 15 -21 28 -30 13 -9 21 -11 17 -5 -4 7 0 14 8
17 10 4 12 1 8 -10 -4 -10 -2 -14 4 -10 6 4 14 1 16 -5 3 -7 3 3 0 22 -4 19
-10 37 -15 38 -4 2 -6 7 -4 11 3 4 0 13 -6 21 -8 12 -9 12 -4 -2 3 -10 0 -20
-6 -24 -6 -4 -9 -3 -5 2 3 5 -4 25 -14 44 -16 28 -19 30 -14 10 l5 -25 -12 25
c-7 14 -18 31 -25 38 -19 20 -16 27 5 11 16 -13 16 -13 -1 7 -9 11 -14 24 -10
29 5 4 1 6 -9 2 -11 -4 -15 -1 -13 11 1 9 -7 22 -19 29 -21 12 -21 12 4 13
l25 1 -23 10 c-13 5 -21 13 -18 18 4 5 -1 16 -10 25 -8 9 -13 20 -9 25 3 5 1
13 -5 16 -6 4 -8 15 -5 26 4 11 2 19 -4 19 -6 0 -11 5 -11 11 0 5 4 8 8 5 9
-6 8 16 -3 51 -4 13 -11 20 -16 17 -5 -3 -9 -1 -9 5 0 5 6 11 13 14 9 3 9 8
-2 18 -12 12 -13 12 -6 0 5 -9 4 -12 -3 -8 -13 9 -10 30 8 52 7 9 9 15 4 14
-29 -5 -37 2 -18 16 16 13 16 14 2 9 -21 -7 -23 6 -5 25 10 11 9 12 -1 7 -9
-6 -11 -1 -8 18 3 14 0 28 -5 31 -5 3 -1 18 8 33 15 22 15 25 2 15 -17 -14
-17 -14 -22 37 -1 14 -5 30 -9 36 -11 17 3 25 20 11 13 -11 14 -9 2 13 -7 14
-13 26 -12 28 1 1 2 3 1 5 -7 24 -7 47 0 42 5 -3 13 0 17 6 4 8 3 9 -4 5 -15
-9 -33 26 -22 44 4 7 6 19 3 27 -4 9 0 11 13 7 17 -6 17 -5 -1 9 -11 8 -17 19
-13 22 4 4 3 16 -3 26 -8 15 -6 17 7 12 10 -4 15 -1 14 8 -5 34 1 60 11 53 6
-3 3 5 -6 20 -13 19 -14 26 -4 26 8 0 5 6 -7 15 -18 14 -18 14 4 10 18 -3 21
-1 14 8 -17 22 -21 46 -10 53 7 4 8 3 4 -4 -4 -7 -3 -12 3 -12 5 0 9 9 8 20
-1 13 -6 19 -16 15 -12 -5 -12 -3 0 11 15 18 21 44 10 44 -7 0 -7 34 -1 50 1
3 1 13 0 24 -1 12 3 16 10 11 9 -6 9 -2 1 12 -7 15 -7 23 2 32 9 10 9 11 -3 6
-12 -4 -16 1 -16 19 0 14 4 22 8 20 5 -3 5 -10 2 -16 -4 -7 -2 -8 4 -4 12 7 6
31 -12 55 -9 12 -8 13 3 6 11 -6 13 -4 8 7 -3 9 0 21 6 27 9 9 8 11 -3 6 -11
-4 -16 1 -16 15 0 14 5 19 15 15 11 -4 12 -3 1 10 -7 8 -9 15 -4 15 4 0 -1 7
-12 16 -10 8 -14 13 -8 10 6 -3 11 1 11 8 0 8 -6 12 -14 9 -7 -3 -13 0 -13 7
0 6 -5 8 -12 4 -9 -5 -9 -2 1 9 12 15 11 17 -3 17 -11 0 -14 4 -10 13 5 8 2 7
-9 -2 -10 -8 -20 -11 -24 -7 -3 3 -1 6 6 6 8 0 7 6 -4 17 -14 13 -21 14 -36 5
-11 -7 -20 -8 -24 -2 -9 14 -27 12 -23 -2z m33 -418 c-3 -5 -11 -10 -16 -10
-6 0 -7 5 -4 10 3 6 11 10 16 10 6 0 7 -4 4 -10z m-15 -180 c0 -5 -5 -10 -11
-10 -5 0 -7 5 -4 10 3 6 8 10 11 10 2 0 4 -4 4 -10z m135 -9 c3 -5 2 -12 -3
-15 -5 -3 -9 1 -9 9 0 17 3 19 12 6z m-5 -285 c0 -3 -4 -8 -10 -11 -5 -3 -10
-1 -10 4 0 6 5 11 10 11 6 0 10 -2 10 -4z m54 -417 c-3 -5 -10 -7 -15 -3 -5 3
-7 10 -3 15 3 5 10 7 15 3 5 -3 7 -10 3 -15z"/>
<path d="M2660 3361 c0 -8 -8 -24 -17 -35 -17 -20 -17 -20 1 -6 18 14 19 13
12 -5 -5 -11 -9 -26 -9 -32 0 -10 -3 -10 -15 0 -13 10 -14 9 -4 -10 9 -16 9
-24 0 -29 -6 -4 -8 -3 -4 4 3 6 2 13 -3 16 -5 4 -8 -2 -6 -11 1 -10 -3 -28
-11 -40 -8 -13 -10 -24 -4 -28 11 -7 2 -35 -12 -35 -6 0 -4 8 3 18 13 15 12
16 -3 4 -17 -13 -14 -47 3 -36 5 3 6 -3 2 -12 -5 -13 -3 -15 7 -9 9 5 11 4 6
-4 -6 -8 -12 -9 -20 -2 -19 16 -27 2 -14 -23 l11 -21 -23 20 -23 20 19 -30
c18 -29 18 -30 0 -15 -18 14 -19 14 -8 -6 8 -16 8 -24 -1 -34 -10 -10 -9 -11
3 -5 12 6 13 5 3 -5 -10 -11 -15 -11 -29 1 -16 13 -16 12 -4 -8 8 -12 19 -19
25 -16 5 3 0 -3 -11 -15 -15 -14 -21 -31 -19 -52 2 -24 -1 -30 -13 -25 -11 4
-12 2 -4 -8 14 -16 8 -51 -12 -82 -12 -18 -13 -25 -3 -28 6 -3 3 -6 -8 -7
l-20 -1 20 -9 c17 -7 17 -9 3 -9 -10 -1 -18 -6 -18 -12 0 -5 -5 -7 -12 -3 -7
4 -8 3 -4 -5 6 -9 11 -9 23 1 14 11 14 9 -1 -19 -9 -18 -17 -36 -17 -40 0 -5
-3 -10 -6 -13 -4 -3 -3 0 1 7 3 6 2 14 -3 17 -5 4 -8 -5 -6 -19 1 -16 -3 -25
-12 -25 -8 0 -11 -5 -8 -10 4 -6 12 -8 18 -4 7 3 3 -2 -7 -10 -11 -9 -15 -16
-10 -16 6 0 11 -7 11 -15 0 -10 -4 -12 -12 -5 -7 6 -11 3 -13 -11 -1 -10 -3
-28 -4 -38 -2 -15 -6 -17 -15 -10 -9 8 -11 6 -8 -10 2 -12 -1 -21 -6 -21 -6 0
-7 -6 -3 -12 5 -8 0 -7 -11 2 -10 8 -16 10 -12 4 4 -7 0 -15 -9 -18 -18 -7
-50 19 -34 29 5 3 10 12 10 18 0 7 -4 6 -11 -3 -9 -12 -10 -11 -6 7 3 13 0 20
-7 17 -6 -2 -12 6 -12 20 -1 19 2 23 15 19 15 -5 15 -5 0 8 -17 15 -35 54 -20
45 5 -3 12 1 15 10 3 8 2 13 -3 9 -17 -10 -18 20 -2 33 9 8 11 11 5 8 -7 -3
-15 1 -18 10 -3 8 -2 12 4 9 12 -8 13 5 1 24 -7 10 -4 19 7 29 9 7 11 11 5 7
-14 -6 -14 -4 -17 58 0 22 3 36 9 33 6 -2 11 5 11 15 0 14 -3 15 -13 7 -11 -9
-12 -6 -4 16 8 19 7 26 -1 26 -6 0 -8 3 -5 6 3 4 2 16 -4 28 -9 19 -9 19 4 4
8 -10 18 -18 22 -18 4 0 2 7 -5 15 -6 8 -8 20 -4 26 4 8 3 9 -4 5 -7 -4 -13
-2 -13 3 -1 6 -2 17 -3 24 -1 6 5 20 13 30 9 10 11 18 6 17 -6 -2 -16 -2 -24
-1 -12 1 -11 4 3 14 16 12 16 14 -4 35 -11 12 -17 22 -11 22 5 0 11 7 15 15 4
12 2 13 -13 5 -16 -8 -18 -7 -14 10 3 12 0 20 -6 20 -7 0 -9 5 -6 10 3 6 -1
10 -9 10 -9 0 -16 5 -16 11 0 5 -4 7 -10 4 -5 -3 -10 0 -10 8 0 8 -7 18 -16
21 -15 6 -15 4 -3 -11 13 -16 12 -17 -3 -4 -10 7 -24 11 -33 8 -8 -4 -17 -1
-21 5 -4 6 -3 8 2 5 6 -3 16 -1 24 4 11 7 7 8 -13 5 -16 -3 -36 -11 -45 -18
-14 -12 -14 -10 -2 12 7 14 9 22 5 18 -5 -4 -15 -2 -24 5 -14 11 -15 10 -1 -7
14 -18 13 -19 -2 -13 -11 4 -21 0 -26 -10 -6 -10 -16 -14 -27 -9 -16 6 -16 4
-4 -10 13 -16 12 -16 -8 -6 -19 11 -21 10 -18 -8 2 -11 0 -18 -5 -15 -4 3 -11
-1 -14 -7 -3 -7 -3 -2 0 10 6 23 6 24 -14 5 -18 -16 -18 -19 -3 -32 15 -12 14
-13 -1 -8 -24 8 -48 -2 -42 -17 3 -7 -2 -19 -10 -26 -9 -7 -13 -17 -9 -23 3
-6 1 -7 -6 -3 -6 4 -9 11 -6 16 3 5 1 11 -4 14 -5 3 -7 -8 -6 -24 2 -26 0 -28
-16 -19 -15 7 -19 7 -17 -3 2 -7 -2 -12 -9 -11 -8 2 -9 -6 -3 -27 8 -28 7 -29
-12 -19 -13 7 -18 7 -14 1 3 -6 1 -14 -5 -17 -5 -4 -8 -14 -4 -23 3 -9 3 -13
-1 -9 -4 4 -13 -1 -21 -11 -8 -9 -11 -11 -7 -3 5 10 3 12 -5 6 -7 -4 -11 -16
-8 -26 3 -12 1 -17 -6 -12 -6 4 -8 0 -4 -11 4 -10 1 -19 -8 -22 -8 -4 -13 -10
-10 -14 7 -12 -23 -33 -37 -25 -7 4 -5 0 5 -8 9 -8 17 -17 17 -19 0 -10 -35
-4 -43 7 -4 6 -5 -3 -1 -19 5 -20 4 -27 -4 -22 -8 5 -10 1 -5 -10 4 -11 3 -15
-5 -10 -6 3 -18 -4 -26 -16 -18 -25 -21 -42 -6 -33 6 3 7 -1 4 -10 -4 -9 -13
-14 -21 -11 -8 3 -11 1 -8 -4 3 -6 1 -10 -4 -10 -6 0 -11 -9 -11 -21 0 -11 -4
-18 -9 -15 -5 3 -8 -2 -7 -11 0 -9 -5 -18 -13 -21 -9 -3 -11 0 -6 8 5 9 4 11
-4 6 -9 -6 -9 -11 1 -24 11 -13 11 -14 -1 -7 -11 6 -13 2 -9 -17 4 -23 2 -25
-26 -22 -23 3 -27 1 -16 -6 8 -5 11 -10 5 -10 -5 0 -4 -5 2 -11 16 -16 5 -39
-18 -39 -19 0 -43 -33 -32 -44 6 -6 -11 -10 -34 -7 -8 1 -10 -5 -6 -15 5 -13
3 -15 -7 -9 -10 6 -12 4 -7 -8 5 -13 1 -17 -14 -17 -11 0 -17 -4 -14 -10 3 -5
1 -10 -4 -10 -6 0 -11 -10 -11 -22 0 -21 0 -21 -15 -2 -11 13 -14 14 -13 4 2
-8 -3 -14 -10 -12 -8 1 -11 -2 -7 -8 3 -6 12 -8 18 -4 7 3 4 -1 -5 -9 -10 -8
-14 -18 -10 -23 4 -4 -1 -2 -11 6 -16 12 -20 12 -27 0 -5 -9 -4 -20 3 -29 9
-12 9 -13 -1 -7 -6 4 -12 3 -12 -1 0 -5 -7 -18 -16 -29 -14 -18 -14 -18 -3 6
11 22 10 23 -3 13 -8 -7 -18 -9 -23 -5 -4 4 -4 -3 -1 -15 9 -27 -9 -39 -23
-16 -9 15 -10 13 -7 -10 4 -22 2 -26 -7 -19 -8 7 -18 6 -31 -4 -11 -8 -15 -14
-10 -14 6 0 16 6 23 13 11 10 11 8 1 -8 -7 -12 -23 -21 -39 -22 -47 -1 -52 -3
-46 -13 3 -5 1 -10 -5 -10 -6 0 -9 -4 -6 -9 4 -5 -3 -7 -14 -4 -11 3 -20 0
-20 -6 0 -6 -5 -11 -11 -11 -5 0 -7 5 -3 12 4 7 3 8 -5 4 -6 -4 -9 -12 -6 -17
4 -5 0 -9 -7 -9 -10 0 -9 -3 2 -11 13 -9 13 -10 0 -6 -8 2 -14 12 -12 22 3 14
1 15 -11 4 -8 -8 -13 -17 -11 -21 2 -4 0 -9 -5 -12 -5 -4 -13 -1 -17 5 -5 8
-3 9 6 4 9 -5 11 -4 6 4 -10 15 -26 4 -26 -17 0 -14 -2 -15 -9 -3 -12 19 -51
22 -44 5 5 -13 -2 -13 -47 -2 -8 1 -14 -3 -12 -10 1 -8 -2 -11 -8 -7 -6 3 -7
12 -3 18 4 7 -2 5 -12 -3 -11 -9 -16 -10 -11 -2 4 6 3 12 -3 12 -5 0 -12 -6
-14 -12 -4 -10 -7 -10 -15 0 -5 8 -15 13 -23 12 -36 -5 -60 0 -53 13 5 7 0 6
-11 -3 -15 -12 -17 -12 -10 -1 6 11 4 13 -8 8 -8 -3 -21 1 -28 9 -7 8 -18 13
-26 10 -8 -3 -16 1 -19 9 -4 8 -13 15 -20 15 -8 0 -17 6 -20 14 -3 8 -13 17
-21 20 -13 5 -14 4 -3 -9 11 -13 10 -14 -3 -10 -8 4 -17 15 -20 26 -4 13 -14
19 -34 19 -22 0 -25 2 -13 10 13 8 12 10 -4 10 -12 0 -16 5 -12 16 3 8 2 13
-3 9 -5 -3 -17 3 -27 12 -17 17 -18 17 -11 1 3 -10 2 -18 -3 -18 -6 0 -10 4
-10 9 0 6 -15 9 -34 8 -19 -1 -32 -5 -29 -10 2 -4 9 -5 14 -2 5 4 9 -1 9 -10
0 -12 -5 -15 -17 -11 -17 6 -17 5 -1 -7 9 -7 20 -26 24 -41 3 -15 9 -25 11
-22 3 3 21 -10 40 -27 20 -18 39 -31 44 -30 4 2 6 -6 4 -16 -2 -10 3 -18 10
-18 8 0 12 4 9 9 -4 5 3 4 15 -4 12 -7 21 -16 21 -21 0 -4 6 -5 13 -1 9 6 9 4
-1 -8 -12 -15 -9 -16 21 -14 22 2 43 -4 58 -16 13 -11 18 -16 10 -12 -10 5
-12 3 -7 -5 6 -9 11 -9 24 1 12 10 14 10 8 1 -4 -8 -1 -13 9 -13 10 0 13 5 9
13 -5 8 -2 7 9 -2 10 -8 20 -11 24 -7 3 3 15 -2 26 -11 11 -10 17 -13 14 -7
-4 7 3 14 17 16 16 3 23 1 20 -7 -3 -6 2 -12 10 -12 8 0 13 4 10 9 -3 4 2 5
10 2 10 -4 16 -1 17 7 0 8 4 5 9 -6 8 -19 9 -19 9 0 1 14 4 16 13 7 7 -7 17
-8 30 -1 13 7 18 6 18 -3 0 -6 6 -3 14 7 8 11 27 20 42 21 16 1 28 6 27 11 -1
5 4 10 12 10 8 0 12 -3 10 -7 -2 -4 2 -7 10 -7 8 0 14 3 13 6 -2 19 4 24 12
11 8 -13 10 -12 10 4 0 14 5 17 21 13 15 -4 18 -3 10 7 -9 10 -5 13 16 12 21
-1 28 4 27 16 -1 10 1 17 5 16 20 -2 31 4 25 14 -4 7 -3 8 5 4 6 -4 9 -11 6
-16 -3 -5 0 -12 6 -16 7 -4 9 -3 5 4 -3 6 -2 13 4 17 6 4 7 11 4 17 -5 8 -1 9
10 5 12 -5 16 -2 14 11 -2 10 3 16 11 14 7 -1 19 2 25 8 7 5 16 7 20 3 4 -4 4
0 0 10 -3 9 -11 14 -17 10 -6 -3 -7 -1 -3 5 4 7 15 8 30 2 22 -8 24 -6 21 16
-2 20 0 22 12 13 10 -9 12 -9 8 3 -3 8 2 21 12 29 17 13 17 13 3 -6 -15 -20
-14 -20 8 -1 23 20 31 43 10 30 -6 -4 -8 -3 -4 4 3 6 15 9 26 7 12 -2 17 1 14
10 -3 7 0 16 7 21 8 5 10 3 4 -6 -6 -9 -4 -11 4 -6 7 5 10 14 7 22 -3 7 0 16
6 20 6 4 8 3 4 -4 -3 -6 -2 -13 3 -16 5 -4 8 5 7 18 -2 15 1 23 9 20 15 -6 39
22 30 36 -3 6 -11 7 -17 4 -7 -4 -8 -2 -4 4 5 9 13 9 27 2 10 -6 19 -9 20 -8
7 29 5 36 -9 31 -14 -4 -14 -3 -3 5 8 6 20 8 28 5 11 -4 17 11 15 38 0 3 8 11
19 17 19 12 19 11 9 -10 -11 -22 -10 -22 4 -4 12 15 13 23 4 33 -9 11 -7 12 8
6 17 -6 18 -5 4 12 -14 17 -14 18 10 5 14 -7 22 -9 18 -5 -11 11 11 47 24 39
7 -4 8 -3 4 5 -4 6 -12 9 -17 6 -5 -4 -9 -1 -9 5 0 8 10 10 28 6 15 -4 23 -3
17 1 -12 10 -18 33 -7 32 19 -3 25 2 12 11 -11 7 -11 10 -2 10 8 0 10 5 6 13
-5 7 0 6 11 -3 11 -9 16 -10 11 -2 -4 7 -2 12 4 12 6 0 8 5 5 10 -3 6 -2 10 4
10 6 0 8 7 4 15 -3 10 0 15 8 13 8 -2 13 3 12 10 -2 6 4 12 12 12 8 0 15 5 15
11 0 5 -4 8 -8 5 -5 -3 -8 5 -7 17 1 12 -3 29 -9 37 -10 13 -9 13 6 1 10 -7
16 -17 13 -21 -3 -5 -1 -11 5 -15 5 -3 10 3 10 14 0 14 5 19 15 15 10 -4 13 0
10 15 -3 16 1 21 12 19 9 -2 18 4 20 12 4 12 3 12 -5 2 -8 -11 -10 -11 -15 1
-8 21 2 28 22 17 15 -7 17 -4 13 22 -4 26 -2 30 12 25 9 -4 15 -3 11 2 -3 5 1
16 9 24 8 8 12 18 8 22 -4 5 2 5 12 1 17 -6 17 -5 5 11 -9 11 -10 14 -1 9 7
-4 12 -2 12 4 0 6 4 9 9 5 5 -3 13 0 17 6 4 8 3 9 -4 5 -7 -4 -12 -2 -12 3 0
6 5 11 11 11 5 0 7 5 3 12 -5 8 -2 9 11 4 15 -5 16 -4 5 9 -7 9 -9 15 -4 14
19 -3 34 1 34 12 0 5 -4 7 -10 4 -16 -10 -11 1 7 16 11 10 14 10 9 2 -10 -17
2 -16 20 1 11 11 11 16 1 19 -7 3 -4 6 6 6 11 1 15 5 11 13 -5 7 -2 9 9 5 13
-5 32 16 29 33 0 3 9 6 21 7 12 0 16 -1 9 -4 -7 -3 -17 -14 -23 -26 -11 -22
-11 -22 10 1 12 12 26 22 32 22 6 0 7 6 4 13 -4 6 5 -1 19 -18 14 -16 26 -26
26 -21 0 5 7 2 16 -5 14 -12 14 -14 -3 -20 -16 -7 -16 -8 -1 -8 9 -1 20 -5 23
-11 4 -6 -1 -7 -12 -3 -17 6 -17 5 1 -15 16 -18 17 -24 6 -37 -7 -9 -10 -18
-6 -22 3 -3 6 -1 6 5 0 7 4 12 9 12 4 0 7 -14 5 -31 -2 -16 0 -28 4 -25 11 6
9 -25 -3 -43 -5 -9 -4 -12 2 -8 5 3 10 -1 10 -9 0 -8 -6 -13 -14 -10 -7 3 -13
1 -13 -4 0 -6 7 -10 15 -10 13 0 14 -4 4 -22 -11 -21 -11 -22 5 -9 14 12 16
12 10 -3 -3 -9 -11 -16 -18 -16 -6 0 -4 -4 4 -10 8 -5 11 -12 8 -15 -4 -4 -3
-18 2 -31 5 -13 6 -23 2 -23 -19 3 -25 -2 -12 -11 13 -8 13 -13 2 -31 -8 -11
-9 -18 -3 -14 6 3 11 -1 11 -9 0 -8 -5 -18 -12 -22 -7 -5 -5 -11 7 -21 18 -13
18 -13 -1 -13 -12 0 -15 -3 -7 -8 16 -10 24 -82 10 -82 -8 0 -8 -3 0 -11 7 -7
8 -21 3 -38 -6 -20 -4 -28 6 -28 7 0 10 5 7 10 -3 6 -1 7 6 3 8 -6 9 -12 2
-20 -8 -9 -4 -19 15 -35 15 -13 22 -27 17 -34 -5 -9 -4 -9 8 0 17 14 39 0 39
-24 0 -16 5 -16 48 -3 29 8 32 7 21 -6 -10 -12 -9 -13 5 -8 9 3 16 10 16 15 0
5 14 16 31 25 23 11 29 12 24 2 -6 -10 -5 -10 4 -2 7 6 13 21 14 33 1 11 5 21
10 21 5 0 5 -10 2 -21 -6 -19 -5 -20 8 -8 8 8 15 16 15 19 0 3 1 8 2 13 1 4 3
11 4 15 0 5 9 16 19 26 19 19 24 51 5 40 -7 -4 -8 -3 -4 5 4 6 12 9 17 6 5 -4
9 0 9 7 0 7 12 26 27 43 18 18 21 26 10 22 -9 -3 -19 -2 -22 3 -4 6 1 10 9 10
9 0 15 3 15 8 -4 21 2 32 14 27 6 -4 3 1 -7 9 -11 9 -14 16 -7 16 6 0 11 8 9
18 -2 11 3 17 14 16 10 -1 15 3 12 8 -3 5 -7 20 -9 34 -1 17 1 21 9 15 8 -7
11 0 12 22 0 18 -4 35 -10 39 -7 5 -3 8 8 8 16 0 17 2 5 17 -8 9 -9 14 -3 10
7 -4 15 0 18 9 3 8 10 13 15 9 5 -3 12 -1 16 4 3 6 -6 8 -22 5 -26 -5 -27 -4
-9 9 13 9 17 20 12 32 -6 16 -4 16 10 4 16 -13 16 -12 6 8 -9 17 -9 22 4 27
13 5 13 8 -1 30 -17 26 -6 30 25 11 12 -7 13 -6 3 7 -7 8 -10 18 -7 21 4 4 -4
4 -16 2 -12 -2 -19 -1 -16 3 7 7 11 8 37 11 5 0 7 5 4 11 -3 5 -1 19 6 31 7
15 8 19 0 15 -7 -5 -9 -1 -5 9 4 8 0 23 -7 32 -10 12 -10 15 -1 9 7 -4 12 -2
12 4 0 7 7 9 18 5 13 -5 14 -3 5 6 -9 9 -8 15 6 28 9 9 11 12 5 8 -9 -6 -11
-2 -7 12 3 12 10 18 15 15 6 -4 5 3 -2 15 -9 18 -9 22 2 20 27 -3 39 1 32 12
-4 8 -9 7 -15 -2 -7 -12 -9 -12 -9 0 0 7 -6 11 -14 8 -10 -4 -14 0 -11 12 2
10 -1 24 -6 32 -7 12 -9 12 -9 0z m-15 -140 c3 -5 2 -12 -3 -15 -5 -3 -9 1 -9
9 0 17 3 19 12 6z m-575 -56 c0 -8 -2 -15 -4 -15 -2 0 -6 7 -10 15 -3 8 -1 15
4 15 6 0 10 -7 10 -15z m-257 -110 c-3 -9 -8 -14 -10 -11 -3 3 -2 9 2 15 9 16
15 13 8 -4z m802 -53 c-3 -3 -11 0 -18 7 -9 10 -8 11 6 5 10 -3 15 -9 12 -12z
m-73 -49 c-6 -2 -9 -10 -6 -15 4 -7 2 -8 -5 -4 -13 9 -5 26 12 25 9 0 8 -2 -1
-6z m-940 -205 c-7 -7 -12 -8 -12 -2 0 14 12 26 19 19 2 -3 -1 -11 -7 -17z
m-37 -77 c3 -5 2 -12 -3 -15 -5 -3 -9 1 -9 9 0 17 3 19 12 6z m930 -70 c-3 -6
-11 -8 -17 -5 -6 4 -5 9 3 15 16 10 23 4 14 -10z m-1105 -217 c0 -8 -19 -13
-24 -6 -3 5 1 9 9 9 8 0 15 -2 15 -3z m-87 -69 c-3 -9 -8 -14 -10 -11 -3 3 -2
9 2 15 9 16 15 13 8 -4z m-53 -15 c0 -5 -5 -10 -11 -10 -5 0 -7 5 -4 10 3 6 8
10 11 10 2 0 4 -4 4 -10z"/>
<path d="M5190 3226 c0 -2 7 -7 16 -10 8 -3 12 -2 9 4 -6 10 -25 14 -25 6z"/>
<path d="M1850 3129 c0 -5 5 -7 10 -4 6 3 10 8 10 11 0 2 -4 4 -10 4 -5 0 -10
-5 -10 -11z"/>
<path d="M2076 3058 c3 -5 10 -6 15 -3 13 9 11 12 -6 12 -8 0 -12 -4 -9 -9z"/>
<path d="M2263 3015 c0 -8 4 -12 9 -9 5 3 6 10 3 15 -9 13 -12 11 -12 -6z"/>
<path d="M3219 2943 c-13 -16 -12 -17 4 -4 16 13 21 21 13 21 -2 0 -10 -8 -17
-17z"/>
<path d="M4715 2930 c-3 -5 -1 -10 4 -10 6 0 11 5 11 10 0 6 -2 10 -4 10 -3 0
-8 -4 -11 -10z"/>
<path d="M4957 2916 c5 -16 3 -18 -12 -13 -16 7 -16 5 -4 -10 9 -11 10 -14 2
-9 -7 4 -13 2 -13 -3 0 -6 -3 -10 -7 -8 -5 1 -8 -2 -8 -8 0 -5 6 -9 13 -9 6 1
12 -2 12 -7 0 -5 -9 -9 -20 -9 -11 0 -20 -4 -20 -9 0 -5 8 -8 18 -7 9 0 16 -4
15 -11 -1 -6 5 -17 14 -25 12 -9 15 -9 9 0 -4 6 -2 12 3 12 6 0 11 -6 11 -12
0 -10 3 -9 9 1 5 7 13 11 18 8 6 -4 19 0 29 9 18 14 18 14 -5 4 l-23 -12 18
25 c11 14 24 22 29 20 6 -3 4 0 -2 8 -16 16 -17 33 -1 23 7 -4 8 -3 4 4 -4 6
-14 8 -23 5 -13 -5 -15 -2 -11 15 5 18 4 19 -13 9 -15 -9 -21 -8 -34 8 -14 19
-15 19 -8 1z"/>
<path d="M1676 2912 c-3 -5 1 -9 9 -9 8 0 12 4 9 9 -3 4 -7 8 -9 8 -2 0 -6 -4
-9 -8z"/>
<path d="M1663 2875 c0 -8 4 -12 9 -9 5 3 6 10 3 15 -9 13 -12 11 -12 -6z"/>
<path d="M2590 2881 c0 -6 4 -13 10 -16 6 -3 7 1 4 9 -7 18 -14 21 -14 7z"/>
<path d="M2716 2861 c-4 -5 3 -7 14 -4 23 6 26 13 6 13 -8 0 -17 -4 -20 -9z"/>
<path d="M2476 2838 c3 -5 10 -6 15 -3 13 9 11 12 -6 12 -8 0 -12 -4 -9 -9z"/>
<path d="M3163 2823 c4 -6 2 -13 -5 -15 -8 -3 -6 -6 4 -10 17 -7 19 15 3 29
-4 4 -5 3 -2 -4z"/>
<path d="M2270 2789 c0 -5 5 -7 10 -4 6 3 10 8 10 11 0 2 -4 4 -10 4 -5 0 -10
-5 -10 -11z"/>
<path d="M2876 2631 c-3 -5 1 -11 9 -14 9 -4 12 -1 8 9 -6 16 -10 17 -17 5z"/>
<path d="M4329 2613 c-12 -16 -12 -17 2 -6 9 7 20 9 24 5 5 -4 5 -1 1 6 -9 16
-11 15 -27 -5z"/>
<path d="M3119 2583 c-13 -16 -12 -17 4 -4 16 13 21 21 13 21 -2 0 -10 -8 -17
-17z"/>
<path d="M2889 2563 c-13 -16 -12 -17 4 -4 16 13 21 21 13 21 -2 0 -10 -8 -17
-17z"/>
<path d="M3308 2563 c7 -3 16 -2 19 1 4 3 -2 6 -13 5 -11 0 -14 -3 -6 -6z"/>
<path d="M1426 2521 c-4 -5 1 -8 9 -7 21 3 31 16 12 16 -9 0 -18 -4 -21 -9z"/>
<path d="M2880 2451 c0 -6 4 -13 10 -16 6 -3 7 1 4 9 -7 18 -14 21 -14 7z"/>
<path d="M2206 2397 c3 -10 9 -15 12 -12 3 3 0 11 -7 18 -10 9 -11 8 -5 -6z"/>
<path d="M3931 2377 c-13 -21 -12 -21 5 -5 10 10 16 20 13 22 -3 3 -11 -5 -18
-17z"/>
<path d="M315 2291 c-3 -5 -2 -12 3 -15 5 -3 9 1 9 9 0 17 -3 19 -12 6z"/>
<path d="M3626 2228 c3 -5 10 -6 15 -3 13 9 11 12 -6 12 -8 0 -12 -4 -9 -9z"/>
<path d="M3253 2185 c0 -8 4 -12 9 -9 5 3 6 10 3 15 -9 13 -12 11 -12 -6z"/>
<path d="M318 2127 c12 -7 19 -17 15 -22 -4 -4 -2 -5 6 0 12 7 11 10 -4 22
-11 7 -24 13 -29 13 -6 -1 -1 -6 12 -13z"/>
<path d="M3675 2090 c-3 -5 -1 -10 4 -10 6 0 11 5 11 10 0 6 -2 10 -4 10 -3 0
-8 -4 -11 -10z"/>
<path d="M510 2010 c0 -5 5 -10 11 -10 5 0 7 5 4 10 -3 6 -8 10 -11 10 -2 0
-4 -4 -4 -10z"/>
<path d="M2975 2000 c10 -11 20 -20 22 -20 2 0 -2 9 -9 20 -7 11 -17 20 -22
20 -5 0 -1 -9 9 -20z"/>
<path d="M870 1992 c0 -5 7 -9 15 -9 8 0 12 4 9 9 -3 4 -9 8 -15 8 -5 0 -9 -4
-9 -8z"/>
<path d="M2815 1940 c-3 -6 1 -7 9 -4 18 7 21 14 7 14 -6 0 -13 -4 -16 -10z"/>
<path d="M2935 1790 c3 -5 11 -10 16 -10 6 0 7 5 4 10 -3 6 -11 10 -16 10 -6
0 -7 -4 -4 -10z"/>
<path d="M3146 1721 c-8 -12 4 -41 16 -41 6 0 5 6 -2 15 -6 8 -9 19 -5 25 3 5
4 10 1 10 -3 0 -7 -4 -10 -9z"/>
</g>
</svg>
