<svg width="25" height="26" viewBox="0 0 25 26" fill="none" xmlns="http://www.w3.org/2000/svg">
<path d="M5.05728 16.7718C7.57305 19.7069 10.5081 22.1178 13.9673 23.6902C15.2252 24.3191 17.0072 25.0529 18.894 25.1577C18.9988 25.1577 19.1037 25.1577 19.2085 25.1577C20.4664 25.1577 21.5146 24.7384 22.3532 23.795C22.6677 23.4805 22.9821 23.0612 23.4014 22.7468C23.6111 22.5371 23.9256 22.2226 24.1352 22.013C25.2883 20.8599 25.2883 19.3924 24.1352 18.2393L20.9905 15.0946C20.4664 14.5705 19.8374 14.256 19.1037 14.256C18.4747 14.256 17.8458 14.5705 17.2168 15.0946L15.33 16.9815C15.1204 16.8766 15.0155 16.7718 14.8059 16.667C14.5962 16.5622 14.3866 16.4573 14.2818 16.3525C12.6046 15.3043 11.0322 13.8367 9.5647 12.0547C8.83094 11.1113 8.30682 10.2727 7.99234 9.53896C8.51646 9.11967 8.93576 8.59555 9.35505 8.17625C9.45988 7.96661 9.66953 7.86178 9.87917 7.65213C10.4033 7.12802 10.7178 6.39425 10.7178 5.76531C10.7178 5.13636 10.4033 4.4026 9.87917 3.87848L8.41164 2.41095C8.20199 2.2013 8.09717 1.99165 7.88752 1.88683C7.57305 1.57236 7.15376 1.15306 6.83928 0.83859C6.31517 0.314471 5.68622 0 4.95246 0C4.32351 0 3.69457 0.314471 3.17045 0.83859L1.1788 2.72542C0.445035 3.45918 0.0257398 4.29777 0.0257398 5.34601C-0.0790839 6.6039 0.130564 7.86178 0.759506 9.53896C1.5981 11.9499 2.9608 14.256 5.05728 16.7718ZM1.28362 5.45084C1.28362 4.71707 1.5981 4.19295 2.12221 3.66883L4.00904 1.782C4.32351 1.46753 4.63799 1.36271 4.95246 1.36271C5.26693 1.36271 5.5814 1.46753 5.89587 1.782C6.21034 2.09648 6.52481 2.41095 6.94411 2.83024C7.15375 2.93507 7.3634 3.14471 7.46823 3.35436L9.04058 4.92672C9.35505 5.13636 9.5647 5.55566 9.5647 5.87013C9.5647 6.1846 9.35505 6.49907 9.04058 6.81354C8.93576 6.91837 8.72611 7.12802 8.62129 7.33766C8.09717 7.75696 7.67787 8.28108 7.15375 8.70037C6.62964 9.11967 6.73446 9.53896 6.83928 9.85343C7.25858 10.7968 7.7827 11.7403 8.62129 12.7885C10.1936 14.6753 11.8708 16.2477 13.6528 17.4007C13.8625 17.5056 14.0721 17.6104 14.3866 17.82C14.5962 17.9249 14.8059 18.0297 14.9107 18.1345C14.9107 18.1345 14.9107 18.1345 15.0155 18.1345C15.2252 18.2393 15.33 18.2393 15.5397 18.2393C15.959 18.2393 16.2734 17.9249 16.2734 17.9249L18.2651 15.9332C18.5795 15.6187 18.894 15.5139 19.2085 15.5139C19.6278 15.5139 19.9423 15.7236 20.1519 15.9332L23.2966 19.0779C23.9256 19.7069 23.9256 20.3358 23.2966 21.0696C23.087 21.2792 22.8773 21.4889 22.5628 21.8033C22.2484 22.1178 21.8291 22.5371 21.5146 22.9564C20.8857 23.5853 20.1519 23.8998 19.3133 23.8998C19.2085 23.8998 19.1037 23.8998 18.9988 23.8998C17.3217 23.795 15.7493 23.166 14.4914 22.5371C11.2419 20.9648 8.41164 18.7635 6.00069 15.9332C4.11387 13.6271 2.75116 11.4258 1.91257 9.01484C1.38845 7.65213 1.1788 6.49907 1.28362 5.45084Z" fill="black"/>
</svg>
