<svg width="32" height="23" viewBox="0 0 32 23" fill="none" xmlns="http://www.w3.org/2000/svg">
<path d="M31.1117 4.0257C30.7489 2.65984 29.6802 1.58416 28.323 1.21911C25.8634 0.555664 16.0001 0.555664 16.0001 0.555664C16.0001 0.555664 6.1369 0.555664 3.67721 1.21911C2.31995 1.58416 1.251 2.65984 0.888499 4.0257C0.229492 6.50138 0.229492 11.6668 0.229492 11.6668C0.229492 11.6668 0.229492 16.832 0.888499 19.308C1.251 20.674 2.31995 21.7494 3.67708 22.1148C6.13676 22.778 16 22.778 16 22.778C16 22.778 25.8633 22.778 28.3228 22.1148C29.6801 21.7495 30.7488 20.674 31.1115 19.3081C31.7707 16.8322 31.7707 11.667 31.7707 11.667C31.7707 11.667 31.7707 6.50151 31.1115 4.02583" fill="#FF0000"/>
</svg>
